<svg width="10" height="11" viewBox="0 0 10 11" fill="none" xmlns="http://www.w3.org/2000/svg">
<path d="M5 0.625C4.03582 0.625 3.09329 0.910914 2.2916 1.44659C1.48991 1.98226 0.865067 2.74363 0.496089 3.63442C0.127112 4.52521 0.030571 5.50541 0.218674 6.45107C0.406777 7.39672 0.871076 8.26536 1.55286 8.94715C2.23464 9.62893 3.10328 10.0932 4.04894 10.2813C4.99459 10.4694 5.97479 10.3729 6.86558 10.0039C7.75637 9.63494 8.51775 9.01009 9.05342 8.2084C9.58909 7.40671 9.875 6.46418 9.875 5.5C9.87252 4.20783 9.35811 2.96929 8.44441 2.05559C7.53071 1.14189 6.29217 0.627478 5 0.625ZM7.32031 4.64688L4.57344 7.27188C4.50243 7.33868 4.40843 7.3756 4.31094 7.375C4.26329 7.37568 4.21597 7.36692 4.17172 7.34922C4.12747 7.33152 4.08716 7.30523 4.05313 7.27188L2.67969 5.95938C2.6416 5.92614 2.61061 5.88554 2.58861 5.84003C2.5666 5.79452 2.55403 5.74502 2.55164 5.69452C2.54925 5.64403 2.5571 5.59357 2.57471 5.54618C2.59232 5.49879 2.61933 5.45545 2.65411 5.41877C2.6889 5.38208 2.73074 5.35281 2.77713 5.33271C2.82352 5.31261 2.87349 5.3021 2.92404 5.30181C2.9746 5.30152 3.02469 5.31145 3.07131 5.33101C3.11792 5.35056 3.1601 5.37935 3.19531 5.41562L4.31094 6.47969L6.80469 4.10312C6.8776 4.03951 6.97229 4.00654 7.06894 4.01112C7.1656 4.01569 7.25675 4.05745 7.32333 4.12766C7.38991 4.19788 7.42678 4.29111 7.42621 4.38788C7.42565 4.48464 7.38771 4.57744 7.32031 4.64688Z" fill="#1799AC"/>
</svg>
